<?xml version="1.0" standalone="no"?><!DOCTYPE svg PUBLIC "-//W3C//DTD SVG 1.1//EN" "http://www.w3.org/Graphics/SVG/1.1/DTD/svg11.dtd"><svg t="1532004139581" class="icon" style="" viewBox="0 0 1024 1024" version="1.1" xmlns="http://www.w3.org/2000/svg" p-id="1269" xmlns:xlink="http://www.w3.org/1999/xlink" width="200" height="200"><defs><style type="text/css"></style></defs><path d="M895.6 458.5c-9.3 14.6-193.7 10-358.5-94.5C372.3 259.4 289.6 94.5 298.8 79.9c9.3-14.6 150.3 58.3 315.1 162.9 164.9 104.5 290.9 201.1 281.7 215.7z" fill="#FCC58D" p-id="1270"></path><path d="M859 479.5h-0.2c-24.6 0-55.4-3.2-86.9-8.9-60.6-11.1-152-36.4-242.9-94S376.4 247 340.5 196.9c-18.6-26-34.6-52.6-45.1-74.8-15.4-32.7-13.6-43.5-9.3-50.2 9.2-14.4 29.5-8.3 47.9-1.4 17.6 6.6 41.4 17.7 70.9 32.9 59.9 31 137 76 217 126.8C702 281 775.5 331.5 829.1 372.5c26.3 20.2 46.5 37 60 50.1 14.1 13.7 28.3 29.5 19.1 43.9-4.3 6.7-13.2 13-49.2 13z m22.5-20.1zM316.8 96.1c6.6 17.3 23 49.6 54.5 92.1 33.7 45.4 91.2 110.6 173.9 163.1s166.1 76.7 221.6 87.8c51.9 10.4 88.1 11.4 106.5 10-9.7-10.2-30.5-29.1-74.7-62.3-51.5-38.7-119.9-85.3-192.6-131.4-72.6-46.1-144-88.1-200.9-118.2-49-25.9-75-36.6-88.3-41.1zM886.5 447zM313.1 83.2" fill="#8A278E" p-id="1271"></path><path d="M457.155 431.246l53.113 33.695L323.79 758.877l-53.113-33.696z" fill="#B0E2F9" p-id="1272"></path><path d="M323.7 773.9c-2.7 0-5.5-0.8-8-2.3l-53.1-33.7c-3.4-2.1-5.7-5.5-6.6-9.4-0.9-3.9-0.2-7.9 2-11.3l186.5-294c4.4-7 13.7-9 20.7-4.6l53.1 33.7c3.4 2.1 5.7 5.5 6.6 9.4 0.9 3.9 0.2 7.9-2 11.3L336.4 767c-2.9 4.4-7.7 6.9-12.7 6.9z m-32.4-53.3l27.9 17.7 170.5-268.7-27.9-17.7-170.5 268.7z" fill="#8A278E" p-id="1273"></path><path d="M269.9 697.7h62.9V936h-62.9z" fill="#B0E2F9" p-id="1274"></path><path d="M332.9 951H270c-8.3 0-15-6.7-15-15V697.7c0-8.3 6.7-15 15-15h62.9c8.3 0 15 6.7 15 15V936c-0.1 8.3-6.8 15-15 15z m-48-30h33V712.7h-33V921z" fill="#8A278E" p-id="1275"></path><path d="M407.2 568.7C242.4 464.1 193.6 245.8 298.1 81l0.7-1.1 31.9 30.8c150.2 145 328.3 257.9 523.4 332l41.5 15.7-0.7 1.1C790.3 624.4 572 673.2 407.2 568.7z" fill="#FCC58D" p-id="1276"></path><path d="M846.4 439.7C732 554.3 549.6 578.5 407.2 488.2c-93.9-59.6-150.1-156-161.8-258.5-15 130.4 43.5 264 161.8 339C572 673.2 790.3 624.4 894.9 459.6l0.7-1.1-41.5-15.7c-2.6-1.1-5.1-2.1-7.7-3.1z" fill="#EFB083" p-id="1277"></path><path d="M595.8 638.7c-69.1 0-136.8-19.5-196.6-57.4-83.1-52.7-140.7-134.6-162.1-230.6-21.5-96-4.3-194.6 48.4-277.7l0.7-1.1c2.4-3.8 6.4-6.3 10.9-6.8s8.9 1 12.2 4.1l31.9 30.8c149.6 144.4 324 255 518.3 328.8l41.5 15.7c4.2 1.6 7.5 5 8.9 9.3 1.4 4.3 0.8 8.9-1.6 12.7l-0.7 1.1C854.9 550.7 773 608.3 677 629.7c-27.1 6-54.2 9-81.2 9zM415.2 556c152.7 96.9 354.2 55.8 457.5-90.2l-23.9-9.1c-98.1-37.2-192.7-84.6-281.3-140.8-88.5-56.2-171.7-121.6-247.2-194.5L302 103.7C213.8 259.4 262.5 459.1 415.2 556l-8 12.6 8-12.6z" fill="#8A278E" p-id="1278"></path><path d="M583.7 305.4c-2.7 0-5.5-0.8-8-2.3-7-4.4-9-13.7-4.6-20.7l89.5-141.1c4.4-7 13.7-9 20.7-4.6s9 13.7 4.6 20.7l-89.5 141.1c-2.9 4.4-7.7 6.9-12.7 6.9z" fill="#8A278E" p-id="1279"></path><path d="M697.3 111.4m-62.9 0a62.9 62.9 0 1 0 125.8 0 62.9 62.9 0 1 0-125.8 0Z" fill="#F39BC2" p-id="1280"></path><path d="M697.1 189.3c-14.6 0-28.9-4.1-41.6-12.1-17.6-11.1-29.7-28.5-34.3-48.8-4.5-20.3-0.9-41.2 10.2-58.7C642.7 52.1 660 40 680.3 35.4c20.3-4.5 41.2-0.9 58.7 10.2 17.6 11.1 29.7 28.5 34.3 48.8 4.5 20.3 0.9 41.2-10.2 58.7-11.1 17.6-28.5 29.7-48.8 34.3-5.7 1.3-11.5 1.9-17.2 1.9z m0.3-125.8c-3.5 0-7.1 0.4-10.6 1.2-12.5 2.8-23.2 10.3-30 21.1-6.9 10.8-9.1 23.7-6.3 36.2 2.8 12.5 10.3 23.2 21.1 30 10.8 6.9 23.7 9.1 36.2 6.3 12.5-2.8 23.2-10.3 30-21.1 6.9-10.8 9.1-23.7 6.3-36.2-2.8-12.5-10.3-23.2-21.1-30-7.8-5-16.6-7.5-25.6-7.5z" fill="#8A278E" p-id="1281"></path><path d="M298.1 740m-78.8 0a78.8 78.8 0 1 0 157.6 0 78.8 78.8 0 1 0-157.6 0Z" fill="#F39BC2" p-id="1282"></path><path d="M298.1 833.8c-51.7 0-93.8-42.1-93.8-93.8s42.1-93.8 93.8-93.8 93.8 42.1 93.8 93.8-42.1 93.8-93.8 93.8z m0-157.7c-35.2 0-63.9 28.6-63.9 63.9 0 35.2 28.6 63.9 63.9 63.9 35.2 0 63.9-28.6 63.9-63.9 0-35.2-28.7-63.9-63.9-63.9zM433.7 952.6H164.4c-8.3 0-15-6.7-15-15s6.7-15 15-15h269.3c8.3 0 15 6.7 15 15s-6.7 15-15 15z" fill="#8A278E" p-id="1283"></path></svg>